<svg version="1.2" xmlns="http://www.w3.org/2000/svg" viewBox="0 0 500 250" width="500" height="250"><style>.a{fill:#fff;stroke:#1a7f90;stroke-miterlimit:0;stroke-width:25}.b{fill:#fff;stroke:#1a7f90;stroke-miterlimit:0;stroke-width:12}.c{fill:#ffa500}</style><path fill-rule="evenodd" class="a" d="m243.5 180.8c-46.6 0-84.4-33.5-84.4-75 0-41.5 37.8-75 84.4-75 46.7 0 84.4 33.5 84.4 75 0 41.5-37.7 75-84.4 75z"/><path fill-rule="evenodd" class="b" d="m238.8 5h11.8v23.4h-11.8z"/><path fill-rule="evenodd" class="b" d="m317.2 32.2l8.8 7.8-15.6 17.5-8.7-7.8z"/><path fill-rule="evenodd" class="b" d="m328.4 109.3l0.1-11.7 23.4 0.2-0.1 11.7z"/><path fill-rule="evenodd" class="b" d="m244.7 180.8h11.7v23.4h-11.7z"/><path fill-rule="evenodd" class="b" d="m301.5 167l8.5-8.1 16.2 17-8.5 8z"/><path fill-rule="evenodd" class="b" d="m178.8 159.1l8.1 8.4-16.9 16.2-8.1-8.4z"/><path fill-rule="evenodd" class="b" d="m135.1 109.3l0.3-11.7 23.4 0.5-0.3 11.8z"/><path fill-rule="evenodd" class="b" d="m169.2 33.3l9.1-7.4 14.8 18.1-9 7.4z"/><path class="c" d="m96.1 157.6v20.9h-31.7v71.5h-20.9v-71.5h-31.5v-20.9zm95.6 71.3v21h-71.4l-10.3-10.6v-70.9l10.3-10.6h61.1l10.3 10.6v45.9h-47.1v-20.9h26.8v-14.7h-40.7v50.2zm13.9-71.3h20.9v92h-20.9zm83.5 0l-33.2 45.7 33.2 46.3h-24.8l-33.5-46.3 33.5-45.7zm94.7 12.1v80.3h-72.5l-10.6-11v-44.7h47.8v20.2h-27.7v15.6h41.4v-50.9h-61.5v-20.2h72.3zm86.6 33.9l10.6 10.8v24.9l-10.6 10.6h-37.8v-21h27.5v-14.5h-27.5v-21.4h27.5v-14.5h-42v71.4h-20.9v-92.4h73.2l10.6 10.5v25z"/></svg>